# MagicaVoxel @ Ephtracy

# group
g character_blue

# material
mtllib character_blue.mtl
usemtl palette

# normals
vn -1 0 0
vn 1 0 0
vn 0 0 1
vn 0 0 -1
vn 0 -1 0
vn 0 1 0

# texcoords
vt 0.205078 0.5
vt 0.232422 0.5
vt 0.373047 0.5
vt 0.728516 0.5
vt 0.958984 0.5
vt 0.994141 0.5

# verts
v -2 0 4
v -2 0 2
v -2 0 -0
v -2 0 -2
v -2 1 4
v -2 1 2
v -2 1 -0
v -2 1 -2
v -2 8 2
v -2 8 -0
v -2 9 3
v -2 9 2
v -2 9 -0
v -2 9 -1
v -2 12 4
v -2 12 3
v -2 12 2
v -2 12 -0
v -2 12 -1
v -2 12 -2
v -2 14 4
v -2 14 3
v -2 14 -1
v -2 14 -2
v -2 16 3
v -2 16 2
v -2 16 -0
v -2 16 -1
v -2 17 3
v -2 17 2
v -2 17 -0
v -2 17 -1
v -2 18 3
v -2 18 -1
v -1 1 4
v -1 1 2
v -1 1 -0
v -1 1 -2
v -1 7 4
v -1 7 2
v -1 7 -0
v -1 7 -2
v -1 8 2
v -1 8 -0
v -1 9 3
v -1 9 2
v -1 9 -0
v -1 9 -1
v -1 12 10
v -1 12 9
v -1 12 8
v -1 12 4
v -1 12 3
v -1 12 -1
v -1 12 -2
v -1 12 -6
v -1 12 -7
v -1 12 -8
v -1 14 10
v -1 14 9
v -1 14 8
v -1 14 4
v -1 14 -2
v -1 14 -6
v -1 14 -7
v -1 14 -8
v 1 0 4
v 1 0 2
v 1 0 -0
v 1 0 -2
v 1 1 4
v 1 1 2
v 1 1 -0
v 1 1 -2
v 1 7 4
v 1 7 2
v 1 7 -0
v 1 7 -2
v 1 9 2
v 1 9 -0
v 1 10 3
v 1 10 2
v 1 10 -0
v 1 10 -1
v 1 12 10
v 1 12 9
v 1 12 8
v 1 12 4
v 1 12 3
v 1 12 -1
v 1 12 -2
v 1 12 -6
v 1 12 -7
v 1 12 -8
v 1 14 10
v 1 14 9
v 1 14 8
v 1 14 4
v 1 14 -2
v 1 14 -6
v 1 14 -7
v 1 14 -8
v 2 9 2
v 2 9 -0
v 2 10 3
v 2 10 2
v 2 10 -0
v 2 10 -1
v 2 12 4
v 2 12 3
v 2 12 2
v 2 12 -0
v 2 12 -1
v 2 12 -2
v 2 14 4
v 2 14 3
v 2 14 -1
v 2 14 -2
v 2 18 3
v 2 18 -1
v -1 12 10
v -1 14 10
v 1 12 10
v 1 14 10
v -2 0 4
v -2 1 4
v -2 12 4
v -2 14 4
v -1 1 4
v -1 7 4
v -1 12 4
v -1 14 4
v 1 0 4
v 1 1 4
v 1 7 4
v 1 12 4
v 1 14 4
v 2 12 4
v 2 14 4
v -2 9 3
v -2 12 3
v -2 14 3
v -2 16 3
v -2 17 3
v -2 18 3
v -1 9 3
v -1 12 3
v -1 16 3
v -1 17 3
v 1 10 3
v 1 12 3
v 2 10 3
v 2 12 3
v 2 14 3
v 2 18 3
v -2 8 2
v -2 9 2
v -1 8 2
v -1 9 2
v 1 9 2
v 1 10 2
v 2 9 2
v 2 10 2
v -2 0 -0
v -2 1 -0
v -1 1 -0
v -1 7 -0
v 1 0 -0
v 1 1 -0
v 1 7 -0
v -2 0 2
v -2 1 2
v -1 1 2
v -1 7 2
v 1 0 2
v 1 1 2
v 1 7 2
v -2 8 -0
v -2 9 -0
v -1 8 -0
v -1 9 -0
v 1 9 -0
v 1 10 -0
v 2 9 -0
v 2 10 -0
v -2 9 -1
v -2 12 -1
v -2 14 -1
v -2 16 -1
v -2 17 -1
v -2 18 -1
v -1 9 -1
v -1 12 -1
v -1 16 -1
v -1 17 -1
v 1 10 -1
v 1 12 -1
v 2 10 -1
v 2 12 -1
v 2 14 -1
v 2 18 -1
v -2 0 -2
v -2 1 -2
v -2 12 -2
v -2 14 -2
v -1 1 -2
v -1 7 -2
v -1 12 -2
v -1 14 -2
v 1 0 -2
v 1 1 -2
v 1 7 -2
v 1 12 -2
v 1 14 -2
v 2 12 -2
v 2 14 -2
v -1 12 -8
v -1 14 -8
v 1 12 -8
v 1 14 -8
v -2 0 4
v 1 0 4
v -2 0 2
v 1 0 2
v -2 0 -0
v 1 0 -0
v -2 0 -2
v 1 0 -2
v -1 7 2
v 1 7 2
v -1 7 -0
v 1 7 -0
v -2 8 2
v -1 8 2
v -2 8 -0
v -1 8 -0
v -2 9 3
v -1 9 3
v -2 9 2
v -1 9 2
v 1 9 2
v 2 9 2
v -2 9 -0
v -1 9 -0
v 1 9 -0
v 2 9 -0
v -2 9 -1
v -1 9 -1
v 1 10 3
v 2 10 3
v 1 10 2
v 2 10 2
v 1 10 -0
v 2 10 -0
v 1 10 -1
v 2 10 -1
v -1 12 10
v 1 12 10
v -1 12 9
v 1 12 9
v -1 12 8
v 1 12 8
v -2 12 4
v -1 12 4
v 1 12 4
v 2 12 4
v -2 12 3
v -1 12 3
v 1 12 3
v 2 12 3
v -2 12 -1
v -1 12 -1
v 1 12 -1
v 2 12 -1
v -2 12 -2
v -1 12 -2
v 1 12 -2
v 2 12 -2
v -1 12 -6
v 1 12 -6
v -1 12 -7
v 1 12 -7
v -1 12 -8
v 1 12 -8
v -2 1 4
v -1 1 4
v -2 1 2
v -1 1 2
v -2 1 -0
v -1 1 -0
v -2 1 -2
v -1 1 -2
v -1 14 10
v 1 14 10
v -1 14 9
v 1 14 9
v -1 14 8
v 1 14 8
v -2 14 4
v -1 14 4
v 1 14 4
v 2 14 4
v -2 14 3
v 2 14 3
v -2 14 -1
v 2 14 -1
v -2 14 -2
v -1 14 -2
v 1 14 -2
v 2 14 -2
v -1 14 -6
v 1 14 -6
v -1 14 -7
v 1 14 -7
v -1 14 -8
v 1 14 -8
v -2 18 3
v 2 18 3
v -2 18 -1
v 2 18 -1

# faces
f 5/6/1 2/6/1 1/6/1
f 6/6/1 2/6/1 5/6/1
f 7/6/1 4/6/1 3/6/1
f 8/6/1 4/6/1 7/6/1
f 12/1/1 10/1/1 9/1/1
f 13/1/1 10/1/1 12/1/1
f 16/1/1 12/1/1 11/1/1
f 17/2/1 13/2/1 12/2/1
f 17/1/1 12/1/1 16/1/1
f 18/1/1 14/1/1 13/1/1
f 18/2/1 13/2/1 17/2/1
f 19/1/1 14/1/1 18/1/1
f 21/1/1 16/1/1 15/1/1
f 22/2/1 17/2/1 16/2/1
f 22/1/1 16/1/1 21/1/1
f 22/2/1 18/2/1 17/2/1
f 22/2/1 19/2/1 18/2/1
f 23/1/1 20/1/1 19/1/1
f 23/2/1 19/2/1 22/2/1
f 24/1/1 20/1/1 23/1/1
f 25/4/1 23/4/1 22/4/1
f 26/4/1 23/4/1 25/4/1
f 27/4/1 23/4/1 26/4/1
f 28/4/1 23/4/1 27/4/1
f 29/5/1 26/5/1 25/5/1
f 30/4/1 27/4/1 26/4/1
f 30/5/1 26/5/1 29/5/1
f 31/5/1 28/5/1 27/5/1
f 31/4/1 27/4/1 30/4/1
f 32/5/1 28/5/1 31/5/1
f 33/4/1 30/4/1 29/4/1
f 33/4/1 31/4/1 30/4/1
f 33/4/1 32/4/1 31/4/1
f 34/4/1 32/4/1 33/4/1
f 39/4/1 36/4/1 35/4/1
f 40/4/1 36/4/1 39/4/1
f 41/4/1 38/4/1 37/4/1
f 42/4/1 38/4/1 41/4/1
f 43/3/1 40/3/1 39/3/1
f 43/3/1 41/3/1 40/3/1
f 43/3/1 42/3/1 41/3/1
f 44/3/1 42/3/1 43/3/1
f 45/3/1 43/3/1 39/3/1
f 46/3/1 43/3/1 45/3/1
f 47/3/1 42/3/1 44/3/1
f 48/3/1 42/3/1 47/3/1
f 52/3/1 45/3/1 39/3/1
f 53/3/1 45/3/1 52/3/1
f 54/3/1 42/3/1 48/3/1
f 55/3/1 42/3/1 54/3/1
f 59/3/1 50/3/1 49/3/1
f 60/1/1 51/1/1 50/1/1
f 60/3/1 50/3/1 59/3/1
f 61/4/1 52/4/1 51/4/1
f 61/1/1 51/1/1 60/1/1
f 62/4/1 52/4/1 61/4/1
f 63/4/1 56/4/1 55/4/1
f 64/1/1 57/1/1 56/1/1
f 64/4/1 56/4/1 63/4/1
f 65/3/1 58/3/1 57/3/1
f 65/1/1 57/1/1 64/1/1
f 66/3/1 58/3/1 65/3/1
f 67/6/2 68/6/2 71/6/2
f 71/6/2 68/6/2 72/6/2
f 69/6/2 70/6/2 73/6/2
f 73/6/2 70/6/2 74/6/2
f 71/4/2 72/4/2 75/4/2
f 75/4/2 72/4/2 76/4/2
f 73/4/2 74/4/2 77/4/2
f 77/4/2 74/4/2 78/4/2
f 75/3/2 76/3/2 79/3/2
f 76/3/2 77/3/2 79/3/2
f 77/3/2 78/3/2 79/3/2
f 79/3/2 78/3/2 80/3/2
f 75/3/2 79/3/2 81/3/2
f 81/3/2 79/3/2 82/3/2
f 80/3/2 78/3/2 83/3/2
f 83/3/2 78/3/2 84/3/2
f 75/3/2 81/3/2 88/3/2
f 88/3/2 81/3/2 89/3/2
f 84/3/2 78/3/2 90/3/2
f 90/3/2 78/3/2 91/3/2
f 85/3/2 86/3/2 95/3/2
f 86/1/2 87/1/2 96/1/2
f 95/3/2 86/3/2 96/3/2
f 87/4/2 88/4/2 97/4/2
f 96/1/2 87/1/2 97/1/2
f 97/4/2 88/4/2 98/4/2
f 91/4/2 92/4/2 99/4/2
f 92/1/2 93/1/2 100/1/2
f 99/4/2 92/4/2 100/4/2
f 93/3/2 94/3/2 101/3/2
f 100/1/2 93/1/2 101/1/2
f 101/3/2 94/3/2 102/3/2
f 103/1/2 104/1/2 106/1/2
f 106/1/2 104/1/2 107/1/2
f 105/1/2 106/1/2 110/1/2
f 106/2/2 107/2/2 111/2/2
f 110/1/2 106/1/2 111/1/2
f 107/1/2 108/1/2 112/1/2
f 111/2/2 107/2/2 112/2/2
f 112/1/2 108/1/2 113/1/2
f 109/1/2 110/1/2 115/1/2
f 110/2/2 111/2/2 116/2/2
f 115/1/2 110/1/2 116/1/2
f 111/2/2 112/2/2 116/2/2
f 112/2/2 113/2/2 116/2/2
f 113/1/2 114/1/2 117/1/2
f 116/2/2 113/2/2 117/2/2
f 117/1/2 114/1/2 118/1/2
f 116/4/2 117/4/2 119/4/2
f 119/4/2 117/4/2 120/4/2
f 123/3/3 122/3/3 121/3/3
f 124/3/3 122/3/3 123/3/3
f 129/6/3 126/6/3 125/6/3
f 131/1/3 128/1/3 127/1/3
f 132/1/3 128/1/3 131/1/3
f 133/6/3 129/6/3 125/6/3
f 134/4/3 130/4/3 129/4/3
f 134/6/3 129/6/3 133/6/3
f 135/3/3 131/3/3 130/3/3
f 135/4/3 130/4/3 134/4/3
f 136/3/3 131/3/3 135/3/3
f 138/1/3 137/1/3 136/1/3
f 139/1/3 137/1/3 138/1/3
f 146/1/3 141/1/3 140/1/3
f 147/1/3 141/1/3 146/1/3
f 148/4/3 143/4/3 142/4/3
f 148/5/3 144/5/3 143/5/3
f 149/4/3 145/4/3 144/4/3
f 149/5/3 144/5/3 148/5/3
f 152/1/3 151/1/3 150/1/3
f 153/1/3 151/1/3 152/1/3
f 154/4/3 148/4/3 142/4/3
f 154/4/3 149/4/3 148/4/3
f 155/4/3 145/4/3 149/4/3
f 155/4/3 149/4/3 154/4/3
f 158/1/3 157/1/3 156/1/3
f 159/1/3 157/1/3 158/1/3
f 162/1/3 161/1/3 160/1/3
f 163/1/3 161/1/3 162/1/3
f 166/6/3 165/6/3 164/6/3
f 168/6/3 166/6/3 164/6/3
f 169/4/3 167/4/3 166/4/3
f 169/6/3 166/6/3 168/6/3
f 170/4/3 167/4/3 169/4/3
f 171/6/4 172/6/4 173/6/4
f 171/6/4 173/6/4 175/6/4
f 173/4/4 174/4/4 176/4/4
f 175/6/4 173/6/4 176/6/4
f 176/4/4 174/4/4 177/4/4
f 178/1/4 179/1/4 180/1/4
f 180/1/4 179/1/4 181/1/4
f 182/1/4 183/1/4 184/1/4
f 184/1/4 183/1/4 185/1/4
f 186/1/4 187/1/4 192/1/4
f 192/1/4 187/1/4 193/1/4
f 188/4/4 189/4/4 194/4/4
f 189/5/4 190/5/4 194/5/4
f 190/4/4 191/4/4 195/4/4
f 194/5/4 190/5/4 195/5/4
f 196/1/4 197/1/4 198/1/4
f 198/1/4 197/1/4 199/1/4
f 188/4/4 194/4/4 200/4/4
f 194/4/4 195/4/4 200/4/4
f 195/4/4 191/4/4 201/4/4
f 200/4/4 195/4/4 201/4/4
f 202/6/4 203/6/4 206/6/4
f 204/1/4 205/1/4 208/1/4
f 208/1/4 205/1/4 209/1/4
f 202/6/4 206/6/4 210/6/4
f 206/4/4 207/4/4 211/4/4
f 210/6/4 206/6/4 211/6/4
f 207/3/4 208/3/4 212/3/4
f 211/4/4 207/4/4 212/4/4
f 212/3/4 208/3/4 213/3/4
f 213/1/4 214/1/4 215/1/4
f 215/1/4 214/1/4 216/1/4
f 217/3/4 218/3/4 219/3/4
f 219/3/4 218/3/4 220/3/4
f 223/6/5 222/6/5 221/6/5
f 224/6/5 222/6/5 223/6/5
f 227/6/5 226/6/5 225/6/5
f 228/6/5 226/6/5 227/6/5
f 231/3/5 230/3/5 229/3/5
f 232/3/5 230/3/5 231/3/5
f 235/1/5 234/1/5 233/1/5
f 236/1/5 234/1/5 235/1/5
f 239/1/5 238/1/5 237/1/5
f 240/1/5 238/1/5 239/1/5
f 245/1/5 242/1/5 241/1/5
f 246/1/5 242/1/5 245/1/5
f 247/1/5 244/1/5 243/1/5
f 248/1/5 244/1/5 247/1/5
f 251/1/5 250/1/5 249/1/5
f 252/1/5 250/1/5 251/1/5
f 255/1/5 254/1/5 253/1/5
f 256/1/5 254/1/5 255/1/5
f 259/3/5 258/3/5 257/3/5
f 260/3/5 258/3/5 259/3/5
f 261/1/5 260/1/5 259/1/5
f 262/1/5 260/1/5 261/1/5
f 264/4/5 262/4/5 261/4/5
f 265/4/5 262/4/5 264/4/5
f 267/1/5 264/1/5 263/1/5
f 268/1/5 264/1/5 267/1/5
f 269/1/5 266/1/5 265/1/5
f 270/1/5 266/1/5 269/1/5
f 275/1/5 272/1/5 271/1/5
f 276/1/5 272/1/5 275/1/5
f 277/1/5 274/1/5 273/1/5
f 278/1/5 274/1/5 277/1/5
f 279/4/5 277/4/5 276/4/5
f 280/4/5 277/4/5 279/4/5
f 281/1/5 280/1/5 279/1/5
f 282/1/5 280/1/5 281/1/5
f 283/3/5 282/3/5 281/3/5
f 284/3/5 282/3/5 283/3/5
f 285/6/6 286/6/6 287/6/6
f 287/6/6 286/6/6 288/6/6
f 289/6/6 290/6/6 291/6/6
f 291/6/6 290/6/6 292/6/6
f 293/3/6 294/3/6 295/3/6
f 295/3/6 294/3/6 296/3/6
f 295/1/6 296/1/6 297/1/6
f 297/1/6 296/1/6 298/1/6
f 297/4/6 298/4/6 300/4/6
f 300/4/6 298/4/6 301/4/6
f 300/1/6 301/1/6 303/1/6
f 301/1/6 302/1/6 303/1/6
f 299/1/6 300/1/6 303/1/6
f 303/1/6 302/1/6 304/1/6
f 305/1/6 306/1/6 307/1/6
f 307/1/6 306/1/6 308/1/6
f 308/1/6 306/1/6 309/1/6
f 309/1/6 306/1/6 310/1/6
f 308/4/6 309/4/6 311/4/6
f 311/4/6 309/4/6 312/4/6
f 311/1/6 312/1/6 313/1/6
f 313/1/6 312/1/6 314/1/6
f 313/3/6 314/3/6 315/3/6
f 315/3/6 314/3/6 316/3/6
f 317/4/6 318/4/6 319/4/6
f 319/4/6 318/4/6 320/4/6
